<svg xmlns="http://www.w3.org/2000/svg"  viewBox="0 0 40 40" width="40px" height="40px"><rect width="33" height="4" x="3.5" y="11.5" fill="#c5d4de"/><rect width="10" height="3" x="15" y="3.5" fill="#c5d4de"/><rect width="33" height="4" x="3.5" y="11.5" fill="none" stroke="#b0c1d4" stroke-miterlimit="10"/><line x1="25" x2="15" y1="3.5" y2="3.5" fill="none" stroke="#b0c1d4" stroke-miterlimit="10"/><line x1="14.5" x2="25.5" y1="6.5" y2="6.5" fill="none" stroke="#b0c1d4" stroke-miterlimit="10"/><path fill="#fff" d="M28.5,15.5v-9l-3-2.5v11.5h-11V4l-3,2.5v9h-8v19c0,1.105,0.895,2,2,2h29c1.105,0,2-0.895,2-2v-19 H28.5z"/><path fill="none" stroke="#e1ebf2" stroke-miterlimit="10" d="M28.5,15.5v-9l-3-2.5v11.5h-11V4l-3,2.5v9h-8v19 c0,1.105,0.895,2,2,2h29c1.105,0,2-0.895,2-2v-19H28.5z"/><rect width="4.5" height="4.5" x="14.5" y="20.5" fill="#f78f8f" stroke="#c74343" stroke-miterlimit="10"/><rect width="4.5" height="4.5" x="21" y="20.5" fill="#bae0bd" stroke="#5e9c76" stroke-miterlimit="10"/><rect width="4.5" height="4.5" x="14.5" y="27" fill="#8bb7f0" stroke="#4e7ab5" stroke-miterlimit="10"/><rect width="4.5" height="4.5" x="21" y="27" fill="#ffeea3" stroke="#f5ce85" stroke-miterlimit="10"/></svg>